<mxfile host="app.diagrams.net" modified="2022-07-04T02:41:47.022Z" agent="5.0 (Windows)" etag="2-7-t5YXsE86k0sGUSBn" version="20.0.4" type="github">
  <diagram id="P5Gz8IGTSDNyfzAtGqVL" name="Page-1">
    <mxGraphModel dx="1704" dy="679" grid="1" gridSize="10" guides="1" tooltips="1" connect="1" arrows="1" fold="1" page="1" pageScale="1" pageWidth="827" pageHeight="1169" math="0" shadow="0">
      <root>
        <mxCell id="0" />
        <mxCell id="1" parent="0" />
        <mxCell id="JobdcRi9m1U82LMk2ZEz-1" value="" style="rounded=0;whiteSpace=wrap;html=1;" vertex="1" parent="1">
          <mxGeometry x="260" y="10" width="210" height="370" as="geometry" />
        </mxCell>
        <mxCell id="JobdcRi9m1U82LMk2ZEz-2" value="" style="rounded=0;whiteSpace=wrap;html=1;" vertex="1" parent="1">
          <mxGeometry x="260" y="340" width="210" height="40" as="geometry" />
        </mxCell>
        <mxCell id="JobdcRi9m1U82LMk2ZEz-3" value="" style="endArrow=classic;html=1;rounded=0;" edge="1" parent="1">
          <mxGeometry width="50" height="50" relative="1" as="geometry">
            <mxPoint x="460" y="370" as="sourcePoint" />
            <mxPoint x="550" y="360" as="targetPoint" />
          </mxGeometry>
        </mxCell>
        <mxCell id="JobdcRi9m1U82LMk2ZEz-4" value="notDone" style="text;html=1;align=center;verticalAlign=middle;resizable=0;points=[];autosize=1;strokeColor=none;fillColor=none;" vertex="1" parent="1">
          <mxGeometry x="555" y="345" width="70" height="30" as="geometry" />
        </mxCell>
        <mxCell id="JobdcRi9m1U82LMk2ZEz-6" value="" style="rounded=0;whiteSpace=wrap;html=1;" vertex="1" parent="1">
          <mxGeometry x="260" y="440" width="210" height="370" as="geometry" />
        </mxCell>
        <mxCell id="JobdcRi9m1U82LMk2ZEz-7" value="" style="rounded=0;whiteSpace=wrap;html=1;" vertex="1" parent="1">
          <mxGeometry x="260" y="340" width="100" height="40" as="geometry" />
        </mxCell>
        <mxCell id="JobdcRi9m1U82LMk2ZEz-8" value="" style="endArrow=classic;html=1;rounded=0;" edge="1" parent="1">
          <mxGeometry width="50" height="50" relative="1" as="geometry">
            <mxPoint x="285" y="360" as="sourcePoint" />
            <mxPoint x="200" y="370" as="targetPoint" />
          </mxGeometry>
        </mxCell>
        <mxCell id="JobdcRi9m1U82LMk2ZEz-9" value="&lt;div&gt;done&lt;/div&gt;" style="text;html=1;align=center;verticalAlign=middle;resizable=0;points=[];autosize=1;strokeColor=none;fillColor=none;" vertex="1" parent="1">
          <mxGeometry x="135" y="355" width="50" height="30" as="geometry" />
        </mxCell>
        <mxCell id="JobdcRi9m1U82LMk2ZEz-10" value="" style="rounded=0;whiteSpace=wrap;html=1;" vertex="1" parent="1">
          <mxGeometry x="260" y="10" width="210" height="60" as="geometry" />
        </mxCell>
        <mxCell id="JobdcRi9m1U82LMk2ZEz-11" value="" style="endArrow=classic;html=1;rounded=0;" edge="1" parent="1">
          <mxGeometry width="50" height="50" relative="1" as="geometry">
            <mxPoint x="430" y="50" as="sourcePoint" />
            <mxPoint x="540" y="40" as="targetPoint" />
          </mxGeometry>
        </mxCell>
        <mxCell id="JobdcRi9m1U82LMk2ZEz-12" value="&lt;div&gt;title&lt;/div&gt;" style="text;html=1;align=center;verticalAlign=middle;resizable=0;points=[];autosize=1;strokeColor=none;fillColor=none;" vertex="1" parent="1">
          <mxGeometry x="540" y="25" width="40" height="30" as="geometry" />
        </mxCell>
        <mxCell id="JobdcRi9m1U82LMk2ZEz-13" value="" style="endArrow=classic;html=1;rounded=0;" edge="1" parent="1">
          <mxGeometry width="50" height="50" relative="1" as="geometry">
            <mxPoint x="330" y="195" as="sourcePoint" />
            <mxPoint x="130" y="180" as="targetPoint" />
          </mxGeometry>
        </mxCell>
        <mxCell id="JobdcRi9m1U82LMk2ZEz-14" value="&lt;div&gt;list&lt;/div&gt;" style="text;html=1;align=center;verticalAlign=middle;resizable=0;points=[];autosize=1;strokeColor=none;fillColor=none;" vertex="1" parent="1">
          <mxGeometry x="90" y="165" width="40" height="30" as="geometry" />
        </mxCell>
        <mxCell id="JobdcRi9m1U82LMk2ZEz-15" value="" style="rounded=0;whiteSpace=wrap;html=1;" vertex="1" parent="1">
          <mxGeometry x="260" y="440" width="210" height="160" as="geometry" />
        </mxCell>
        <mxCell id="JobdcRi9m1U82LMk2ZEz-16" value="" style="endArrow=classic;html=1;rounded=0;" edge="1" parent="1">
          <mxGeometry width="50" height="50" relative="1" as="geometry">
            <mxPoint x="380" y="520" as="sourcePoint" />
            <mxPoint x="550" y="520" as="targetPoint" />
          </mxGeometry>
        </mxCell>
        <mxCell id="JobdcRi9m1U82LMk2ZEz-17" value="list" style="text;html=1;align=center;verticalAlign=middle;resizable=0;points=[];autosize=1;strokeColor=none;fillColor=none;" vertex="1" parent="1">
          <mxGeometry x="540" y="505" width="40" height="30" as="geometry" />
        </mxCell>
        <mxCell id="JobdcRi9m1U82LMk2ZEz-18" value="" style="rounded=0;whiteSpace=wrap;html=1;" vertex="1" parent="1">
          <mxGeometry x="260" y="440" width="210" height="40" as="geometry" />
        </mxCell>
        <mxCell id="JobdcRi9m1U82LMk2ZEz-19" value="" style="rounded=1;whiteSpace=wrap;html=1;" vertex="1" parent="1">
          <mxGeometry x="270" y="450" width="50" height="20" as="geometry" />
        </mxCell>
        <mxCell id="JobdcRi9m1U82LMk2ZEz-20" value="" style="endArrow=classic;html=1;rounded=0;" edge="1" parent="1" target="JobdcRi9m1U82LMk2ZEz-21">
          <mxGeometry width="50" height="50" relative="1" as="geometry">
            <mxPoint x="285" y="460" as="sourcePoint" />
            <mxPoint x="180" y="490" as="targetPoint" />
          </mxGeometry>
        </mxCell>
        <mxCell id="JobdcRi9m1U82LMk2ZEz-21" value="switch(done or&amp;nbsp; notdoem)" style="text;html=1;strokeColor=none;fillColor=none;align=center;verticalAlign=middle;whiteSpace=wrap;rounded=0;" vertex="1" parent="1">
          <mxGeometry x="150" y="475" width="60" height="30" as="geometry" />
        </mxCell>
        <mxCell id="JobdcRi9m1U82LMk2ZEz-22" value="" style="endArrow=classic;html=1;rounded=0;" edge="1" parent="1">
          <mxGeometry width="50" height="50" relative="1" as="geometry">
            <mxPoint x="389" y="720" as="sourcePoint" />
            <mxPoint x="610" y="700" as="targetPoint" />
          </mxGeometry>
        </mxCell>
        <mxCell id="JobdcRi9m1U82LMk2ZEz-23" value="desktop" style="text;html=1;align=center;verticalAlign=middle;resizable=0;points=[];autosize=1;strokeColor=none;fillColor=none;" vertex="1" parent="1">
          <mxGeometry x="600" y="690" width="60" height="30" as="geometry" />
        </mxCell>
      </root>
    </mxGraphModel>
  </diagram>
</mxfile>
